<?xml version="1.0" encoding="utf-8"?>
<!-- Generator: Adobe Illustrator 16.0.0, SVG Export Plug-In . SVG Version: 6.00 Build 0)  -->
<!DOCTYPE svg PUBLIC "-//W3C//DTD SVG 1.1//EN" "http://www.w3.org/Graphics/SVG/1.1/DTD/svg11.dtd">
<svg version="1.1" id="Camada_1" xmlns="http://www.w3.org/2000/svg" xmlns:xlink="http://www.w3.org/1999/xlink" x="0px" y="0px"
	 width="2000px" height="1400px" viewBox="0 0 2000 1400" enable-background="new 0 0 2000 1400" xml:space="preserve">
<rect fill="#FFFFFF" width="2000" height="1400"/>
<path fill="#1946B4" d="M1300,0H0v900L1300,0z"/>
<path fill="#FF9600" d="M700,1400h1300V500L700,1400z"/>
<path fill="#FF9600" d="M1400,700l-242.431,27.783l63.242,36.577l-72.991-3.131l53.827,49.397l-70.583-18.854l151.778,191.07
	l-191.07-151.778l18.854,70.583l-49.397-53.827l3.131,72.991l-36.577-63.242L1000,1100l-27.783-242.431l-36.577,63.242l3.131-72.991
	l-49.397,53.827l18.854-70.583l-191.07,151.778l151.778-191.07l-70.583,18.854l53.827-49.397l-72.991,3.131l63.242-36.577L600,700
	l242.431-27.783l-63.242-36.577l72.991,3.131l-53.827-49.397l70.583,18.854l-151.778-191.07l191.07,151.778l-18.854-70.583
	l49.397,53.827l-3.131-72.991l36.577,63.242L1000,300l27.783,242.431l36.577-63.242l-3.131,72.991l49.397-53.827l-18.854,70.583
	l191.07-151.778l-151.778,191.07l70.583-18.854l-53.827,49.397l72.991-3.131l-63.242,36.577L1400,700z"/>
</svg>
