<?xml version="1.0" encoding="utf-8"?>
<!-- Generator: Adobe Illustrator 16.0.0, SVG Export Plug-In . SVG Version: 6.00 Build 0)  -->
<!DOCTYPE svg PUBLIC "-//W3C//DTD SVG 1.0//EN" "http://www.w3.org/TR/2001/REC-SVG-20010904/DTD/svg10.dtd">
<svg version="1.0" id="Camada_1" xmlns="http://www.w3.org/2000/svg" xmlns:xlink="http://www.w3.org/1999/xlink" x="0px" y="0px"
	 width="400px" height="400px" viewBox="0 0 400 400" enable-background="new 0 0 400 400" xml:space="preserve">
<g>
	<path fill-rule="evenodd" clip-rule="evenodd" d="M233.67,312.333l-42.942,42.484l-19.873-61.443
		c8.374-0.763,17.511-2.59,27.411-5.482c14.771-4.263,29.237-10.507,43.399-18.731L233.67,312.333z M245.549,248.833
		c-15.687,10.658-31.523,18.807-47.513,24.438c-11.724,3.96-22.233,6.244-31.521,6.853c-9.746,0.458-18.122-0.988-25.126-4.339
		l-17.816,17.816l-17.359-17.588l17.359-17.359c-3.654-7.31-5.177-16.065-4.568-26.269c0.609-9.288,2.894-19.721,6.853-31.294
		c6.092-17.207,15.152-34.414,27.183-51.621c9.44-13.402,20.709-26.801,33.805-40.203c29.846-30.761,60.531-52.612,92.052-65.557
		c31.673-13.096,61.825-17.74,90.453-13.933c3.656,28.934-1.597,59.389-15.76,91.367c-14.011,31.673-35.786,62.282-65.329,91.825
		C274.101,226.979,259.862,238.933,245.549,248.833z M200.55,249.975c16.901-7.006,33.729-17.437,50.479-31.294l22.385-20.33
		c24.365-24.363,42.866-49.11,55.507-74.236c3.349-6.547,6.166-13.021,8.45-19.416c-23.297-6.547-37.841-21.015-43.627-43.399
		l-18.046,7.537c-24.973,11.727-49.795,30.228-74.464,55.508l-18.501,20.558c-15.077,18.12-26.268,36.014-33.578,53.678
		c-7.004,17.053-9.061,30.607-6.167,40.658l34.49-34.492l17.588,17.361l-34.263,34.263
		C170.704,258.958,183.951,256.827,200.55,249.975z M105.526,308.449l-63.042,63.043H27.409v-14.16l63.5-63.503L105.526,308.449z
		 M315.901,55.132c2.436,16.752,11.724,25.965,27.867,27.64l2.284-29.924C336.307,52.239,326.256,53.001,315.901,55.132z
		 M104.384,227.588l-63.5-21.013l50.025-47.283l39.516-6.167c-9.137,15.229-15.99,30.685-20.558,46.368
		C106.822,209.544,104.993,218.908,104.384,227.588z M27.409,332.205v-31.523l38.144-38.144l23.072,8.449L27.409,332.205z
		 M128.368,311.19l7.31,20.558l-39.973,39.744H67.837L128.368,311.19z M273.871,99.903l2.514-3.426
		c2.284-2.436,5.023-3.656,8.223-3.656c3.351,0,6.168,1.22,8.452,3.656c2.436,2.284,3.653,5.102,3.653,8.452
		c0,3.197-1.218,5.938-3.653,8.222l-3.199,2.284c-1.521,0.761-3.274,1.142-5.253,1.142c-3.199,0-5.938-1.142-8.223-3.426
		s-3.426-5.025-3.426-8.222L273.871,99.903z M257.425,184.418c-4.415,2.284-9.364,3.426-14.848,3.426
		c-9.137,0-16.978-3.274-23.526-9.821c-6.547-6.549-9.821-14.468-9.821-23.756c0-5.026,0.914-9.67,2.741-13.933
		c1.675-3.656,3.959-6.931,6.853-9.824c6.701-6.698,14.617-9.973,23.754-9.821c9.442,0,17.438,3.274,23.984,9.821
		c6.549,6.549,9.823,14.468,9.823,23.757c0,9.288-3.351,17.207-10.051,23.756L257.425,184.418z"/>
</g>
</svg>
